<svg xmlns="http://www.w3.org/2000/svg" xmlns:xlink="http://www.w3.org/1999/xlink" width="981.629" height="703.961" viewBox="0 0 981.629 703.961">
  <defs>
    <radialGradient id="radial-gradient" cx="0.5" cy="0.5" r="0.5" gradientUnits="objectBoundingBox">
      <stop offset="0" stop-color="#9f9eac"/>
      <stop offset="1" stop-color="#4d3b95"/>
    </radialGradient>
    <filter id="Trazado_99" x="271.6" y="182.84" width="504.8" height="504.8" filterUnits="userSpaceOnUse">
      <feOffset dy="3" input="SourceAlpha"/>
      <feGaussianBlur stdDeviation="3" result="blur"/>
      <feFlood flood-opacity="0.161"/>
      <feComposite operator="in" in2="blur"/>
      <feComposite in="SourceGraphic"/>
    </filter>
    <linearGradient id="linear-gradient" x1="0.5" x2="0.5" y2="1" gradientUnits="objectBoundingBox">
      <stop offset="0" stop-color="#585ec7"/>
      <stop offset="1" stop-color="#000df8"/>
    </linearGradient>
    <linearGradient id="linear-gradient-2" x1="0.5" x2="0.5" y2="1" gradientUnits="objectBoundingBox">
      <stop offset="0" stop-color="#585ec7"/>
      <stop offset="1" stop-color="#888bc7"/>
    </linearGradient>
    <linearGradient id="linear-gradient-3" x1="0.827" y1="-0.065" x2="0.5" y2="1" gradientUnits="objectBoundingBox">
      <stop offset="0" stop-color="#b8bcfc"/>
      <stop offset="1" stop-color="#2c2f64"/>
    </linearGradient>
    <linearGradient id="linear-gradient-4" y1="0.118" x2="0.775" y2="0.649" gradientUnits="objectBoundingBox">
      <stop offset="0" stop-color="#fe7d1e"/>
      <stop offset="1" stop-color="#fcee4c"/>
    </linearGradient>
    <linearGradient id="linear-gradient-6" x1="0.5" y1="1" x2="0.5" gradientUnits="objectBoundingBox">
      <stop offset="0" stop-color="gray" stop-opacity="0.251"/>
      <stop offset="0.54" stop-color="gray" stop-opacity="0.122"/>
      <stop offset="1" stop-color="gray" stop-opacity="0.102"/>
    </linearGradient>
    <linearGradient id="linear-gradient-7" x1="0.5" x2="0.5" y2="1" gradientUnits="objectBoundingBox">
      <stop offset="0" stop-color="#ffc107"/>
      <stop offset="1" stop-color="#bf9927"/>
    </linearGradient>
    <linearGradient id="linear-gradient-8" x1="0.5" x2="0.5" y2="1" gradientUnits="objectBoundingBox">
      <stop offset="0" stop-color="#ffc107"/>
      <stop offset="1" stop-color="#916e05"/>
    </linearGradient>
  </defs>
  <g id="draw" transform="translate(0 1.03)">
    <g id="flor-completa" transform="translate(-892 136.056)">
      <g id="flor-derecha" transform="translate(1159.473 438.759)">
        <path id="Trazado_16" data-name="Trazado 16" d="M1016.161,666.194c2.6-4.82-.348-10.71-3.749-14.994s-7.5-8.756-7.433-14.223c.129-7.856,8.466-12.5,15.134-16.665a73.655,73.655,0,0,0,13.591-10.919,20.046,20.046,0,0,0,4.177-5.591c1.376-3.068,1.339-6.565,1.253-9.934q-.434-16.81-1.665-33.6" transform="translate(-1004.979 -547.974)" fill="none" stroke="#3f3d56" stroke-miterlimit="10" stroke-width="4"/>
        <path id="Trazado_17" data-name="Trazado 17" d="M1068.067,548.989a12.231,12.231,0,0,0-6.121-10.035l-2.742,5.425.08-6.571a12.252,12.252,0,1,0,8.783,11.181Z" transform="translate(-1022.906 -537.309)" fill="#ffc107"/>
        <path id="Trazado_18" data-name="Trazado 18" d="M1028.433,698.512a12.247,12.247,0,1,1,.595-9.87l-7.658,6.228,8.424-1.949a12.176,12.176,0,0,1-1.359,5.589Z" transform="translate(-1005.127 -603.892)" fill="#ffc107"/>
        <path id="Trazado_19" data-name="Trazado 19" d="M1026.058,648.322a12.253,12.253,0,0,1-3.888-24.039l-.064,5.05,2.774-5.494h.032a12.257,12.257,0,1,1,1.146,24.486Z" transform="translate(-1008.803 -577.494)" fill="#ffc107"/>
        <path id="Trazado_20" data-name="Trazado 20" d="M1081.614,611.358a12.258,12.258,0,1,1,5.414-22.936l-2.142,5.933,4.456-4.284a12.183,12.183,0,0,1,3.957,8.456,11.966,11.966,0,0,1-.305,3.4,12.258,12.258,0,0,1-11.38,9.43Z" transform="translate(-1034.611 -560.323)" fill="#ffc107"/>
      </g>
      <path id="Trazado_21" data-name="Trazado 21" d="M1066.4,558.076c-2.828.311-5.58,1.189-8.418,1.366s-5.955-.5-7.749-2.71a36.734,36.734,0,0,1-2.271-3.99,8.711,8.711,0,0,0-3.085-2.9,12.258,12.258,0,1,0,22.909,8.118C1067.349,558,1066.862,558.028,1066.4,558.076Z" transform="translate(136.583 -104.37)" opacity="0.1"/>
      <path id="Trazado_22" data-name="Trazado 22" d="M1081.642,617.463A12.269,12.269,0,0,1,1069.994,600a8.935,8.935,0,0,1,2.463,2.469,39.529,39.529,0,0,0,2.431,4.049c1.906,2.244,5.168,2.977,8.124,2.844s5.81-.975,8.761-1.242c.407-.037.819-.064,1.232-.075a12.258,12.258,0,0,1-11.364,9.42Z" transform="translate(124.833 -127.669)" opacity="0.1"/>
      <path id="Trazado_23" data-name="Trazado 23" d="M1026.05,654.6a12.252,12.252,0,0,1-11.781-17.254,9.981,9.981,0,0,1,2.592,2.49,38.057,38.057,0,0,0,2.678,4.134c2.067,2.3,5.542,3.111,8.675,3.036,3.036-.064,5.955-.809,8.975-1.039a12.263,12.263,0,0,1-11.139,8.633Z" transform="translate(150.678 -145.018)" opacity="0.1"/>
      <path id="Trazado_24" data-name="Trazado 24" d="M1028.422,705.328a12.258,12.258,0,0,1-22.342-10,12.319,12.319,0,0,1,2.678,2.394c1.167,1.424,1.933,3.031,3.283,4.354,2.506,2.463,6.549,3.475,10.175,3.572a53.19,53.19,0,0,0,6.207-.321Z" transform="translate(154.357 -171.949)" opacity="0.1"/>
      <path id="Trazado_25" data-name="Trazado 25" d="M991.36,743.2s9.671-.3,12.584-2.372,14.877-4.557,15.6-1.226,14.534,16.553,3.615,16.644-25.373-1.7-28.28-3.475S991.36,743.2,991.36,743.2Z" transform="translate(156 -191.755)" fill="#656380"/>
      <path id="Trazado_26" data-name="Trazado 26" d="M1023.357,759.609c-10.919.086-25.372-1.7-28.28-3.475-2.217-1.349-3.1-6.19-3.4-8.424h-.321s.61,7.8,3.518,9.57,17.361,3.561,28.28,3.475c3.154-.027,4.241-1.146,4.182-2.806C1026.9,758.961,1025.7,759.588,1023.357,759.609Z" transform="translate(156 -196.279)" opacity="0.2"/>
    </g>
    <path id="Trazado_1" data-name="Trazado 1" d="M1057.629,779.51c0,5.48-44.9,10.49-119.154,14.34-13.5.69-27.969,1.35-43.312,2q-19.895.81-41.691,1.51-21.131.67-43.864,1.25c-47.883,1.22-100.8,2.1-157.033,2.54q-20.466.17-41.485.25-21.89.09-44.276.08C295.742,801.48,76,791.66,76,779.54s219.743-22,490.815-22c116.7,0,223.864,1.82,308.108,4.86l9.207.33h.056C990.292,766.79,1057.629,772.79,1057.629,779.51Z" transform="translate(-76 -98.55)" fill="#3f3d56"/>
    <path id="Trazado_2" data-name="Trazado 2" d="M1012.6,779.51c0,5.48-42.844,10.49-113.688,14.34-12.878.69-26.686,1.35-41.325,2q-18.982.81-39.779,1.51-20.162.67-41.852,1.25c-45.686,1.22-96.181,2.1-149.83,2.54q-19.527.17-39.582.25-20.886.09-42.246.08c-258.638,0-468.3-9.82-468.3-21.94s209.663-22,468.3-22c111.347,0,213.6,1.82,293.976,4.86l8.785.33h.054C948.355,766.79,1012.6,772.79,1012.6,779.51Z" transform="translate(-76 -98.55)" opacity="0.1"/>
    <path id="Trazado_3" data-name="Trazado 3" d="M1057.629,771.28c0,5.48-44.9,10.49-119.154,14.33-13.5.7-27.969,1.36-43.312,2q-19.895.81-41.691,1.51-21.131.67-43.864,1.25c-47.883,1.22-100.8,2.1-157.033,2.54q-20.466.15-41.485.25-21.89.08-44.276.08C295.742,793.24,76,783.42,76,771.3s219.743-21.95,490.815-21.95c116.7,0,223.864,1.82,308.108,4.86l9.207.33h.056C990.292,758.56,1057.629,764.56,1057.629,771.28Z" transform="translate(-76 -98.55)" fill="#3f3d56"/>
    <path id="Trazado_4" data-name="Trazado 4" d="M982.274,771.27c0,5.48-41.457,10.49-110.007,14.35-12.461.69-25.822,1.35-39.987,2q-18.367.79-38.491,1.51-19.509.67-40.488,1.25c-44.216,1.22-93.075,2.1-144.987,2.54q-18.886.15-38.3.24-20.21.09-40.878.1C278.874,793.26,76,783.43,76,771.26c0-10.45,150.979-19.2,353.144-21.4q17.3-.2,34.98-.32,31.841-.21,65.013-.22t65.013.22q17.719.13,34.971.32c68.706.74,131.514,2.25,184.463,4.32l8.5.33h.061C920.106,758.56,982.274,764.56,982.274,771.27Z" transform="translate(-76 -98.55)" fill="#3f3d56"/>
    <path id="Trazado_5" data-name="Trazado 5" d="M854,361.77l-81.08,3.74,79.67-16.27a101.123,101.123,0,0,0-6-20.94,101.34,101.34,0,1,0-129.87-155l56.54,73L707.07,184a101.55,101.55,0,0,0-20.15,77.75l57.94,16-56-6.46a102.679,102.679,0,0,0,4.4,13.31A101.35,101.35,0,0,0,659,405.14,101.34,101.34,0,0,0,672.31,577.5a34.938,34.938,0,0,0-5.26,10.92,33.3,33.3,0,0,0-.39,17.48,34.63,34.63,0,0,0-9.28,32.55A34.63,34.63,0,0,0,648.1,671a34.61,34.61,0,0,0-9.28,32.55,33.39,33.39,0,0,0-8.89,15.07c-4.19,14.7,1.52,29.23,12.76,32.43s23.74-6.13,27.93-20.84a33.41,33.41,0,0,0,.4-17.48,34.69,34.69,0,0,0,9.28-32.55,34.7,34.7,0,0,0,9.28-32.56,34.67,34.67,0,0,0,9.28-32.55A33.28,33.28,0,0,0,707.74,600a34.649,34.649,0,0,0,1.3-11.88A101.34,101.34,0,0,0,812.14,448.8a101.39,101.39,0,0,0,41.81-87Z" transform="translate(-76 -98.55)" fill="#f2f2f2"/>
    <ellipse id="Elipse_1" data-name="Elipse 1" cx="122.29" cy="12.93" rx="122.29" ry="12.93" transform="translate(401.71 659.33)" opacity="0.1"/>
    <g transform="matrix(1, 0, 0, 1, 0, -1.03)" filter="url(#Trazado_99)">
      <path id="Trazado_99-2" data-name="Trazado 99" d="M243.4,0C377.826,0,486.8,108.974,486.8,243.4S377.826,486.8,243.4,486.8,0,377.826,0,243.4,108.974,0,243.4,0Z" transform="translate(280.6 188.84)" fill="url(#radial-gradient)"/>
    </g>
    <path id="Trazado_6" data-name="Trazado 6" d="M802.25,529.75C802.25,641.45,711.69,732,600,732c-6.41,0-12.76-.29-19-.88-100.56-9.39-179.75-92.38-183.12-194.55q-.12-3.41-.12-6.82,0-7.66.57-15.2c7.77-104.59,95.1-187,201.68-187,92,0,169.64,61.42,194.17,145.48.43,1.51.86,3,1.27,4.55q2.25,8.5,3.8,17.29a204,204,0,0,1,3,34.88Z" transform="translate(-76 -98.55)" opacity="0.1"/>
    <path id="Trazado_7" data-name="Trazado 7" d="M802.25,529.75C802.25,641.45,711.69,732,600,732c-109.41,0-198.54-86.9-202.13-195.43,23.06.66,46.55-.1,68.34-7.61,23.62-8.13,43.84-23.69,65.59-36,58.43-32.95,128.16-41.82,194.91-35.3,22.67,2.21,46.18,6.81,67.46,15.27a202.391,202.391,0,0,1,8.08,56.77Z" transform="translate(-76 -98.55)" opacity="0.4" fill="url(#linear-gradient)"/>
    <path id="Trazado_8" data-name="Trazado 8" d="M802.25,529.75C802.25,641.45,711.69,732,600,732c-6.41,0-12.76-.29-19-.88A202.26,202.26,0,0,1,468.42,556.56c23.06.66,46.55-.1,68.34-7.61,23.63-8.13,43.84-23.69,65.59-36,57.9-32.66,126.89-41.65,193.09-35.47q2.25,8.5,3.8,17.29A204,204,0,0,1,802.25,529.75Z" transform="translate(-76 -98.55)" opacity="0.4" fill="url(#linear-gradient-2)"/>
    <path id="Trazado_9" data-name="Trazado 9" d="M802.25,529.75C802.25,641.45,711.69,732,600,732S397.75,641.45,397.75,529.75q0-7.66.57-15.2A160.572,160.572,0,0,1,444.5,527.4c23.72,10.65,44.82,27,69.49,35.21,18,6,37.14,7.43,56.08,8,23.65.75,47.8.15,70.17-7.56,23.62-8.13,43.83-23.69,65.59-35.95,28.93-16.32,60.66-26.73,93.41-32.29a204,204,0,0,1,3.01,34.94Z" transform="translate(-76 -98.55)" fill="url(#linear-gradient-3)"/>
    <g id="nubes" transform="translate(-29 -1)">
      <path id="Trazado_10" data-name="Trazado 10" d="M1064,138.68l-18.25,11.57,11.08-20.15a18,18,0,0,0-11-3.94h-.3a21.581,21.581,0,0,1-3.78-.28l-6.19,3.92,2.65-4.82a22.06,22.06,0,0,1-10.82-8.21l-11.07,7,7-12.72c-6.48-7.77-15.2-12.53-24.81-12.53-11.51,0-21.76,6.84-28.38,17.51a21.22,21.22,0,0,1-18.76,10.12h-.62c-12.71,0-23,14.41-23,32.19s10.3,32.18,23,32.18a17.31,17.31,0,0,0,8-2c8.29-4.31,19.17-4.4,27.85-.55a29.08,29.08,0,0,0,23.68.06c8.62-3.78,19.37-3.7,27.61.53a17.23,17.23,0,0,0,7.93,2c12.71,0,23-14.41,23-32.18A40.859,40.859,0,0,0,1064,138.68Z" transform="translate(-76 -98.55)" fill="#f2f2f2"/>
      <path id="Trazado_11" data-name="Trazado 11" d="M1029.59,185.77a34,34,0,0,0-19.72,2.14,29,29,0,0,1-23.67,0c-8.69-3.85-19.57-3.77-27.86.54a17.2,17.2,0,0,1-8,2C939,190.41,929.65,179,927.69,164a21.58,21.58,0,0,0,5.64-6.08c6.62-10.67,16.88-17.51,28.39-17.51s21.64,6.76,28.26,17.31a21.79,21.79,0,0,0,18.76,10.31h.29C1018,168.05,1025.8,175.26,1029.59,185.77Z" transform="translate(-76 -98.55)" opacity="0.03"/>
      <path id="Trazado_12" data-name="Trazado 12" d="M269.07,125.62l-9.1,5.77,5.53-10a9,9,0,0,0-5.51-2h-.14a10.79,10.79,0,0,1-1.89-.14l-3.09,2,1.33-2.41a11,11,0,0,1-5.4-4.09l-5.52,3.5,3.49-6.35a16.19,16.19,0,0,0-12.37-6.25c-5.75,0-10.86,3.42-14.16,8.74a10.59,10.59,0,0,1-9.36,5h-.31c-6.34,0-11.48,7.18-11.48,16.05s5.14,16,11.48,16a8.62,8.62,0,0,0,4-1,16.56,16.56,0,0,1,13.89-.27,14.52,14.52,0,0,0,11.81,0,16.62,16.62,0,0,1,13.77.26,8.49,8.49,0,0,0,3.95,1c6.34,0,11.48-7.18,11.48-16a20.26,20.26,0,0,0-2.4-9.81Z" transform="translate(-76 -98.55)" fill="#f2f2f2"/>
      <path id="Trazado_13" data-name="Trazado 13" d="M251.92,149.11a16.87,16.87,0,0,0-9.83,1.07,14.52,14.52,0,0,1-11.81,0,16.58,16.58,0,0,0-13.9.27,8.55,8.55,0,0,1-4,1c-5.64,0-10.32-5.67-11.3-13.15a10.93,10.93,0,0,0,2.82-3c3.3-5.32,8.42-8.73,14.16-8.73s10.79,3.37,14.09,8.63a10.85,10.85,0,0,0,9.36,5.14h.15C246.15,140.27,250,143.87,251.92,149.11Z" transform="translate(-76 -98.55)" opacity="0.03"/>
      <path id="Trazado_14" data-name="Trazado 14" d="M363.34,236.06,378,245.33l-8.88-16.14a14.48,14.48,0,0,1,8.85-3.15h.23a16.2,16.2,0,0,0,3-.23l4.95,3.15L384,225.09a17.66,17.66,0,0,0,8.67-6.58l8.87,5.63L396,214c5.19-6.22,12.18-10,19.87-10,9.23,0,17.44,5.48,22.75,14a17,17,0,0,0,15,8.11h.5c10.18,0,18.43,11.54,18.43,25.78s-8.25,25.79-18.43,25.79a13.86,13.86,0,0,1-6.43-1.61,26.62,26.62,0,0,0-22.31-.44,23.23,23.23,0,0,1-19,.05,26.6,26.6,0,0,0-22.12.43,13.9,13.9,0,0,1-6.35,1.57c-10.19,0-18.44-11.55-18.44-25.79A32.75,32.75,0,0,1,363.34,236.06Z" transform="translate(-76 -98.55)" fill="#f2f2f2"/>
      <path id="Trazado_15" data-name="Trazado 15" d="M390.89,273.79a27.28,27.28,0,0,1,15.8,1.72,23.28,23.28,0,0,0,19,0,26.61,26.61,0,0,1,22.32.43,13.82,13.82,0,0,0,6.42,1.61c9.05,0,16.57-9.11,18.14-21.13A17.439,17.439,0,0,1,468,251.5c-5.31-8.54-13.52-14-22.75-14s-17.33,5.42-22.64,13.88a17.44,17.44,0,0,1-15,8.25h-.23C400.17,259.6,393.93,265.37,390.89,273.79Z" transform="translate(-76 -98.55)" opacity="0.03"/>
    </g>
    <g id="flor-izq">
      <path id="Trazado_27" data-name="Trazado 27" d="M922,754c-3.17-5.87.43-13.06,4.56-18.29s9.17-10.68,9.06-17.35c-.15-9.58-10.32-15.24-18.45-20.32a89.639,89.639,0,0,1-16.57-13.32,24.33,24.33,0,0,1-5.09-6.81c-1.68-3.75-1.63-8-1.52-12.11q.53-20.52,2-41" transform="translate(-76 -98.55)" fill="none" stroke="#3f3d56" stroke-miterlimit="10" stroke-width="4"/>
      <path id="Trazado_28" data-name="Trazado 28" d="M880.56,624A14.92,14.92,0,0,1,888,611.78l3.34,6.62-.1-8A14.95,14.95,0,1,1,880.56,624Z" transform="translate(-76 -98.55)" fill="#ffc107"/>
      <path id="Trazado_29" data-name="Trazado 29" d="M907.21,725.17A14.94,14.94,0,0,0,935.42,719a14.722,14.722,0,0,0-1-6.06,14.95,14.95,0,0,0-28,.16l9.34,7.6-10.27-2.38a14.65,14.65,0,0,0,1.72,6.85Z" transform="translate(-76 -98.55)" fill="#ffc107"/>
      <path id="Trazado_30" data-name="Trazado 30" d="M914.58,696.16a15,15,0,0,0,15.63-14.23,14.65,14.65,0,0,0-1.29-6.81,15,15,0,0,0-9.59-8.28l.07,6.16-3.4-6.7h0a15,15,0,0,0-15.62,14.23,14.63,14.63,0,0,0,.64,5.1,15,15,0,0,0,13.56,10.53Z" transform="translate(-76 -98.55)" fill="#ffc107"/>
      <path id="Trazado_31" data-name="Trazado 31" d="M878.31,672a14.932,14.932,0,1,0-6.61-27.97l2.64,7.24-5.43-5.22a14.95,14.95,0,0,0,9.4,25.95Z" transform="translate(-76 -98.55)" fill="#ffc107"/>
      <path id="Trazado_32" data-name="Trazado 32" d="M882.57,628c3.44.38,6.8,1.45,10.26,1.67s7.26-.62,9.45-3.31c1.18-1.45,1.77-3.28,2.77-4.86a10.75,10.75,0,0,1,3.76-3.55,14.94,14.94,0,1,1-27.92,9.92C881.44,627.91,882,628,882.57,628Z" transform="translate(-76 -98.55)" opacity="0.1"/>
      <path id="Trazado_33" data-name="Trazado 33" d="M878.31,672a15,15,0,0,0,15.63-14.23,14.79,14.79,0,0,0-1.42-7.09,11,11,0,0,0-3,3c-1.07,1.6-1.71,3.46-3,4.94-2.33,2.73-6.31,3.63-9.91,3.46s-7.09-1.18-10.69-1.51c-.49-.05-1-.08-1.5-.09A14.94,14.94,0,0,0,878.31,672Z" transform="translate(-76 -98.55)" opacity="0.1"/>
      <path id="Trazado_34" data-name="Trazado 34" d="M914.58,696.16a15,15,0,0,0,15.63-14.23,14.65,14.65,0,0,0-1.29-6.81,12,12,0,0,0-3.16,3c-1.16,1.64-1.88,3.52-3.24,5-2.52,2.81-6.76,3.8-10.58,3.71s-7.26-1-10.94-1.27a15,15,0,0,0,13.58,10.6Z" transform="translate(-76 -98.55)" opacity="0.1"/>
      <path id="Trazado_35" data-name="Trazado 35" d="M907.21,725.17A14.94,14.94,0,0,0,935.42,719a14.722,14.722,0,0,0-1-6.06,14.92,14.92,0,0,0-3.28,2.93c-1.42,1.73-2.36,3.69-4,5.31-3.06,3-8,4.23-12.38,4.35a63.389,63.389,0,0,1-7.55-.36Z" transform="translate(-76 -98.55)" opacity="0.1"/>
    </g>
    <path id="Trazado_36" data-name="Trazado 36" d="M944.53,747.21s-11.8-.37-15.35-2.9-18.15-5.55-19-1.49-17.72,20.19-4.41,20.29,30.94-2.07,34.49-4.23S944.53,747.21,944.53,747.21Z" transform="translate(-76 -98.55)" fill="#656380"/>
    <path id="Trazado_37" data-name="Trazado 37" d="M905.5,761.7c13.32.11,31-2.07,34.49-4.23,2.71-1.65,3.78-7.56,4.14-10.28h.4s-.75,9.51-4.3,11.67-21.17,4.34-34.49,4.23c-3.84,0-5.17-1.39-5.1-3.42C901.18,760.91,902.64,761.68,905.5,761.7Z" transform="translate(-76 -98.55)" opacity="0.2"/>
    <path id="Trazado_39" data-name="Trazado 39" d="M710.58,582.71c22.68,4.54,35.07-26.22,35.07-26.22-2.65,4-5,3.59-17.43,2.69S704.63,567,704.63,567c-17.91-50.58-62.49-21-62.49-21a42,42,0,0,0,13.6,23.1c-2.57,2.66-5.71,6.54-4.74,8.8,1.12,2.65,8.47-1.08,12.57-3.42.78.43,1.57.83,2.36,1.21.31,3.78.9,13.61-1.07,18.52,0,0,9.25,2.89,14.64-13.92a72.532,72.532,0,0,0,18.37,1.68s-11.14,25.13-4.2,29.46,10.56,16.25,10.56,16.25C723.88,610.53,710.58,582.71,710.58,582.71Z" transform="translate(-76 -98.55)" opacity="0.707" fill="url(#linear-gradient-4)"/>
    <path id="Trazado_98" data-name="Trazado 98" d="M710.58,582.71c22.68,4.54,35.07-26.22,35.07-26.22-2.65,4-5,3.59-17.43,2.69S704.63,567,704.63,567c-17.91-50.58-62.49-21-62.49-21a42,42,0,0,0,13.6,23.1c-2.57,2.66-5.71,6.54-4.74,8.8,1.12,2.65,8.47-1.08,12.57-3.42.78.43,1.57.83,2.36,1.21.31,3.78.9,13.61-1.07,18.52,0,0,9.25,2.89,14.64-13.92a72.532,72.532,0,0,0,18.37,1.68s-11.14,25.13-4.2,29.46,10.56,16.25,10.56,16.25C723.88,610.53,710.58,582.71,710.58,582.71Z" transform="matrix(0.921, -0.391, 0.391, 0.921, -372.456, 280.886)" opacity="0.707" fill="url(#linear-gradient-4)"/>
    <path id="Trazado_40" data-name="Trazado 40" d="M359.09,373l.06-.09-.23-.15-.47-.33.09.08A1.94,1.94,0,0,0,356,373l-.28.41h0L342.12,393l-2.38,3.42c-7.16-2.15-18.78,6.93-24.67,12.13l-1,.92c-.47-1.05-.74-1.72-.74-1.72-.29,3.2-11.57,8-14.21,9.73a9.57,9.57,0,0,1-3.93,1.33c.38-12.16-9-24.95-9-24.95L263.2,364.58a25.79,25.79,0,0,1,2.35-15.5c.18-.38.38-.76.59-1.13h1.13a32.1,32.1,0,0,0,5.59-.5A30.6,30.6,0,0,0,298,319.24c2.31-.6,4.28-2.74,3.95-5.21a4,4,0,0,0,0-1.42h0a5.163,5.163,0,0,0-.27-.87h0c-.66-1.66-2.05-3-3.07-4.52a14,14,0,0,1-2.18-7.44,29.649,29.649,0,0,1,1.07-6.82,11.47,11.47,0,0,0,.65-4.12v-.28a6.813,6.813,0,0,0-.05-1.1,5.058,5.058,0,0,0-.18-.77h0a7.37,7.37,0,0,0-3.08-3.75c-3.63-2.37-8.29-2.4-12.37-3.89-5.92-2.17-11.28-7.53-17.46-6.23-3.38.7-6,3.29-8.9,5.12a21.48,21.48,0,0,1-10.74,3.26c-3.2.1-6.43-.51-9.58,0a10.716,10.716,0,0,0-1.66.45,24.769,24.769,0,0,0-8.32-1.31,14,14,0,0,0-7.85,2.16c-4.25,3-5.39,8.74-5.32,13.9v1.12c0,2.47.24,5,.28,7.45a22.3,22.3,0,0,1-.93,6.8c-2,6.11-7.57,10.78-8.7,17.1a15.248,15.248,0,0,0-.19,3.3c-.08,3.58,1.07,7.17,2.13,10.64,2.19,7.17,3.93,14.79,3.94,22.23a36.54,36.54,0,0,1-2.71,13.47,20.378,20.378,0,0,1-1.92,3.56,10.247,10.247,0,0,1-.79,1l-.12.13c-.24.28-.5.54-.76.8l-.22.2a8.006,8.006,0,0,1-.79.62l-.26.2a7.939,7.939,0,0,1-1.14.64l1.95-.11a8.6,8.6,0,0,1-1.95,1.24l10.32-.6a.828.828,0,0,0,.05.34,4.868,4.868,0,0,1-.15.76,6,6,0,0,1-.25.71.3.3,0,0,0,0,.1,6.161,6.161,0,0,1-.8,1.29l-.08.1a6.768,6.768,0,0,1-.52.55h0a4.941,4.941,0,0,1-.56.44l-.13.09a5.9,5.9,0,0,1-.64.37h0a6.412,6.412,0,0,1-.66.24l-.17.05a4.612,4.612,0,0,1-.72.15l1-.12c.65-.08,1.3-.16,1.94-.27h.19a5.17,5.17,0,0,1-3.1,1.54,28.082,28.082,0,0,0,6.53-1.28c1.35,9,4.33,36.53,2.69,41.61C213.5,438.34,218,478,218,478s.61,3,1.68,7.58c-2.76,6.51-5.91,13.73-7.49,16.62-3.18,5.81-1.61,35.43,9.32,48.6,0,0,4.53,6.38,3.34,8.71s.2,6.39.2,6.39l1.73,38.33A99.926,99.926,0,0,1,226,616c-4.66,5.78-11.86,14.21-15.25,15.59-5.23,2.12-44.29,49.56-44.29,49.56s.31.57.92,1.5l-1.1,1.27-7.5,8.69-.59.69a180.56,180.56,0,0,0-18.2-2.51h-.73v-.14a28.249,28.249,0,0,0-7.84.21h-.06a2.59,2.59,0,0,0-1.29.68c-2.53,3.1-3.9,51.89-3.9,51.89s2.7,24.37,11.1,25.78a4.679,4.679,0,0,0,1.35.25h.09a2.453,2.453,0,0,0,.47,0c6-.44,8.79-3.91,10-6.27a10.408,10.408,0,0,0,.84-2.25s-1-4.36,1.66-10.36,7.52-16.46,7.52-16.46,8.92-9.39,7.33-13.95l.86-1.24c3.36-4.78,10.13-14.22,15.61-20.53l1.08-1.21A27.345,27.345,0,0,0,190.3,699s8.4-3.29,11.53-10.65c1.33-3.13,6.54-8.67,12.09-14-.12.92-.18,1.43-.18,1.43l-.19,46.65a33.224,33.224,0,0,0,5.74,3.17c0,.37,0,.76,0,1.15a149.349,149.349,0,0,1-1.2,19.9c-.05.35-.11.69-.17,1-.69-.49-1.29-.66-1.67-.27-1.72,1.74-2.79,12.87-2.89,18v.29h0c-.12,2.13-.69,4.65-.69,6.91-.05,3.28,1,6,6.27,6.26,6.58.28,34.88.71,50,.93a33.54,33.54,0,0,0,22.37-7.93c2.78-2.38,4.91-5,5-7.52.14-1.91-.9-3.75-3.79-5.34a.252.252,0,0,1-.06.19c-.38-.21-.79-.41-1.24-.61l-14.55-2.28-24.8-12.68s-.15-7.66-3.13-6.39a8.368,8.368,0,0,0-2.51,1c-.15-.28-.3-.58-.45-.89a28.81,28.81,0,0,1-3.06-12.92,8.655,8.655,0,0,1,.06-1.24,21.7,21.7,0,0,0,2.05-2.11s-.19-17.42,1.76-20.72,8-36.59,8-36.59.2-6.19,4.1-9.87,2.54-14.33,2.54-14.33,5.47-2.9,7.23-12.39,7.42-30.2,7.42-30.2S287.6,566.36,286.82,547s1.17-29.43,1.17-29.43l2.44-45v-.7a17.646,17.646,0,0,1,1.62,1.34v-.49l.56.49s1.24-20.41.82-28.51c6.84-2.32,17.24-6.14,17.83-8.08.88-2.9,12.59-12.05,12.59-12.05a2.331,2.331,0,0,1-.71-.27c.37-.17.75-.37,1.16-.59,7.68-4.11,21.95-16.14,19.55-23.49l15.6-22.45a3.81,3.81,0,0,0-.36-4.77ZM232,351.13a11.157,11.157,0,0,0-1.14.09A87.1,87.1,0,0,0,228,339.39c-1.81-6.08-3.75-12.2-4.05-18.53v-.83a23.389,23.389,0,0,1,.65-4.94c.38.69.79,1.37,1.22,2,2.49,3.77,5.41,7.35,6.95,11.6a33.079,33.079,0,0,0,2.17,5.85c1.07,1.79,3,3.28,5.12,3a4,4,0,0,0,1.93-.89A81.529,81.529,0,0,1,232,351.13Z" transform="translate(-76 -98.55)" fill="url(#linear-gradient-6)"/>
    <path id="Trazado_41" data-name="Trazado 41" d="M321.52,428.56a10,10,0,0,1-3.69,1.4c-4.81.14-8.77-12.88-8.77-12.88s1.37-1.38,3.55-3.32c6.44-5.74,20-16.32,26.3-10.4C346,410,329.79,424.08,321.52,428.56Z" transform="translate(-76 -98.55)" fill="#ecb4b6"/>
    <path id="Trazado_42" data-name="Trazado 42" d="M248.46,738.89,230.73,758s-16.41.18-13.2-8.87a33.209,33.209,0,0,0,1.36-6,146.537,146.537,0,0,0,1.16-19.38c0-4.25-.07-7.23-.07-7.23s25.84-11.32,23.2.47a22.059,22.059,0,0,0-.53,4.49,28.2,28.2,0,0,0,2.95,12.59A28.568,28.568,0,0,0,248.46,738.89Z" transform="translate(-76 -98.55)" fill="#ecb4b6"/>
    <path id="Trazado_43" data-name="Trazado 43" d="M248.46,738.89,230.73,758s-16.41.18-13.2-8.87a33.209,33.209,0,0,0,1.36-6c2.34,1.81,5.71,7.15,5.71,7.15s11.32,3.3,14.43-6.6c1.74-5.54,4.49-8.28,6.57-9.61a28.569,28.569,0,0,0,2.86,4.82Z" transform="translate(-76 -98.55)" opacity="0.1"/>
    <path id="Trazado_44" data-name="Trazado 44" d="M289.61,767.73A32.35,32.35,0,0,1,268,775.45c-14.62-.22-42-.64-48.31-.91-8.48-.36-5.67-7.61-5.39-12.61v-.5c.09-5,1.13-15.84,2.79-17.54s7.49,7.54,7.49,7.54,11.32,3.31,14.43-6.6S248.46,734,248.46,734c2.88-1.25,3,6.22,3,6.22l24,12.35,14.06,2.22c.45.21.87.42,1.25.62C297.07,758.92,294.26,763.7,289.61,767.73Z" transform="translate(-76 -98.55)" fill="#ffc107"/>
    <circle id="Elipse_3" data-name="Elipse 3" cx="1.04" cy="1.04" r="1.04" transform="translate(168.31 648.08)" fill="#fff" opacity="0.25"/>
    <circle id="Elipse_4" data-name="Elipse 4" cx="1.04" cy="1.04" r="1.04" transform="translate(178.02 652.89)" fill="#fff" opacity="0.25"/>
    <circle id="Elipse_5" data-name="Elipse 5" cx="1.04" cy="1.04" r="1.04" transform="translate(183.02 655.13)" fill="#fff" opacity="0.25"/>
    <circle id="Elipse_6" data-name="Elipse 6" cx="1.04" cy="1.04" r="1.04" transform="translate(193.4 659.11)" fill="#fff" opacity="0.25"/>
    <circle id="Elipse_7" data-name="Elipse 7" cx="1.04" cy="1.04" r="1.04" transform="translate(188.12 657.41)" fill="#fff" opacity="0.25"/>
    <path id="Trazado_45" data-name="Trazado 45" d="M289.61,767.73A32.35,32.35,0,0,1,268,775.45c-14.62-.22-42-.64-48.31-.91-8.48-.36-5.67-7.61-5.39-12.61l53.31,3.29s21.83-3.31,23.13-9.82C297.07,758.92,294.26,763.7,289.61,767.73Z" transform="translate(-76 -98.55)" fill="#ffc107"/>
    <path id="Trazado_46" data-name="Trazado 46" d="M289.61,767.51A32.25,32.25,0,0,1,268,775.23c-14.62-.21-42-.63-48.3-.9-8.49-.37-5.68-7.62-5.4-12.62L267.61,765s21.83-3.31,23.13-9.81C297.07,758.71,294.26,763.49,289.61,767.51Z" transform="translate(-76 -98.55)" fill="#fff" opacity="0.25"/>
    <path id="Trazado_47" data-name="Trazado 47" d="M190.36,690.79a35.994,35.994,0,0,0-5.35,5.36c-5.29,6.15-11.83,15.35-15.08,20l-2,2.94L160.84,718s-7.64-11.69-7.54-12,6-12.83,6-12.83l2.3-2.69,7.24-8.47,3.28-3.84S196.78,686.17,190.36,690.79Z" transform="translate(-76 -98.55)" fill="#ecb4b6"/>
    <path id="Trazado_48" data-name="Trazado 48" d="M169.93,716.15l-2,2.94L160.84,718s-7.64-11.69-7.54-12,6-12.83,6-12.83l2.3-2.69.75.13h1.8c-6.33,6.6.47,21.13.47,21.13S167.59,712.09,169.93,716.15Z" transform="translate(-76 -98.55)" opacity="0.1"/>
    <path id="Trazado_49" data-name="Trazado 49" d="M162,731s-4.72,10.19-7.27,16-1.6,10.09-1.6,10.09a9.289,9.289,0,0,1-.81,2.19c-1.16,2.31-3.84,5.68-9.66,6.11a3.386,3.386,0,0,1-.45,0c-8.6-.23-11.33-25.19-11.33-25.19s1.31-47.54,3.76-50.56a2.45,2.45,0,0,1,1.25-.66,26.113,26.113,0,0,1,7.58-.2c7.78.56,17.77,2.47,17.77,2.47h1.8c-6.33,6.6.46,21.12.46,21.12s3,.29,5.38,4.53S162,731,162,731Z" transform="translate(-76 -98.55)" fill="#ffc107"/>
    <circle id="Elipse_8" data-name="Elipse 8" cx="1.04" cy="1.04" r="1.04" transform="translate(74.6 617.23)" fill="#fff" opacity="0.25"/>
    <circle id="Elipse_9" data-name="Elipse 9" cx="1.04" cy="1.04" r="1.04" transform="translate(74.09 625.47)" fill="#fff" opacity="0.25"/>
    <path id="Trazado_50" data-name="Trazado 50" d="M151.64,759.09a11.12,11.12,0,0,1-9.66,6.12h-.45C132.93,765,130.19,740,130.19,740s1.32-47.53,3.77-50.55a2.37,2.37,0,0,1,1.25-.67,26.79,26.79,0,0,1,7.57-.2c-.14,8.54-.55,35.55.05,38.23S148.22,751.91,151.64,759.09Z" transform="translate(-76 -98.55)" fill="#ffc107"/>
    <path id="Trazado_51" data-name="Trazado 51" d="M152.26,759.27a11.11,11.11,0,0,1-9.66,6.11,3.417,3.417,0,0,1-.45,0c-8.61-.23-11.34-25.19-11.34-25.19s1.32-47.54,3.77-50.56a2.37,2.37,0,0,1,1.24-.66,26.138,26.138,0,0,1,7.58-.2c-.14,8.54-.55,35.55,0,38.23S148.83,752.08,152.26,759.27Z" transform="translate(-76 -98.55)" fill="#fff" opacity="0.25"/>
    <path id="Trazado_52" data-name="Trazado 52" d="M141.53,765.21C132.93,765,130.19,740,130.19,740s1.32-47.53,3.77-50.55a2.37,2.37,0,0,1,1.25-.67c1.8,2.69,3.38,8.63,2,21.7-2.69,24.76.55,26.31.55,26.31S141.73,757.82,141.53,765.21Z" transform="translate(-76 -98.55)" fill="#ffc107"/>
    <path id="Trazado_53" data-name="Trazado 53" d="M141.46,765.21C132.86,765,130.12,740,130.12,740s1.32-47.53,3.77-50.55a2.37,2.37,0,0,1,1.25-.67c1.8,2.69,3.38,8.63,2,21.7-2.69,24.76.55,26.31.55,26.31S141.65,757.82,141.46,765.21Z" transform="translate(-76 -98.55)" opacity="0.1"/>
    <path id="Trazado_54" data-name="Trazado 54" d="M321.52,428.56a10,10,0,0,1-3.69,1.4c-4.81.14-8.77-12.88-8.77-12.88s1.37-1.38,3.55-3.32C314.14,417.31,318.48,426.8,321.52,428.56Z" transform="translate(-76 -98.55)" opacity="0.1"/>
    <path id="Trazado_55" data-name="Trazado 55" d="M290.67,423.88s4,.28,6.51-1.42,13.44-6.37,13.72-9.48c0,0,6.51,15.85,10.19,16.41,0,0-11.32,8.92-12.17,11.75S286,450.9,286,450.9Z" transform="translate(-76 -98.55)" fill="#ff748e"/>
    <path id="Trazado_56" data-name="Trazado 56" d="M290.67,423.88s4,.28,6.51-1.42,13.44-6.37,13.72-9.48c0,0,6.51,15.85,10.19,16.41,0,0-11.32,8.92-12.17,11.75S286,450.9,286,450.9Z" transform="translate(-76 -98.55)" fill="#ffc107"/>
    <path id="Trazado_57" data-name="Trazado 57" d="M190.36,690.79a35.994,35.994,0,0,0-5.35,5.36c-8.53-3.58-14-10.87-16.13-14.07l3.28-3.84S196.78,686.17,190.36,690.79Z" transform="translate(-76 -98.55)" opacity="0.1"/>
    <path id="Trazado_58" data-name="Trazado 58" d="M230.73,610.53s-13.84,18.48-18.9,20.56-42.78,48.29-42.78,48.29,8.11,14.9,23,17.35c0,0,8.11-3.21,11.13-10.37S230,659,230,659Z" transform="translate(-76 -98.55)" fill="#5e5a6b"/>
    <path id="Trazado_59" data-name="Trazado 59" d="M230.73,610.53s-13.84,18.48-18.9,20.56-42.78,48.29-42.78,48.29,8.11,14.9,23,17.35c0,0,8.11-3.21,11.13-10.37S230,659,230,659Z" transform="translate(-76 -98.55)" opacity="0.1"/>
    <path id="Trazado_60" data-name="Trazado 60" d="M188.81,672.44a59.756,59.756,0,0,0,12.59,0C208.9,671.74,203.24,676.26,188.81,672.44Z" transform="translate(-76 -98.55)" opacity="0.1"/>
    <path id="Trazado_61" data-name="Trazado 61" d="M185.41,677.25s9.91,5.66,13.73,2.83S195.45,682.81,185.41,677.25Z" transform="translate(-76 -98.55)" opacity="0.1"/>
    <path id="Trazado_62" data-name="Trazado 62" d="M243.18,717a22.059,22.059,0,0,0-.53,4.49c-7.65,6.94-16.85,4.79-22.6,2.27,0-4.25-.07-7.23-.07-7.23S245.82,705.22,243.18,717Z" transform="translate(-76 -98.55)" opacity="0.1"/>
    <path id="Trazado_63" data-name="Trazado 63" d="M289,470.94l-.29,5.22L286.38,520s-1.89,9.81-1.13,28.68-10.57,48.66-10.57,48.66-5.47,20.19-7.17,29.43-7,12.07-7,12.07,1.32,10.38-2.45,14-4,9.62-4,9.62-5.85,32.44-7.73,35.65-1.7,20.19-1.7,20.19c-12.26,14.52-30.18,1.32-30.18,1.32l.19-45.46s5.09-41.88,8.86-47.73,3.77-21.88,3.77-21.88L225.6,567.2s-1.34-4-.19-6.22-3.23-8.49-3.23-8.49c-10.56-12.83-12.07-41.69-9-47.35s12.23-28.29,12.23-28.29l12.62-7.36,22.8.68Z" transform="translate(-76 -98.55)" fill="#5e5a6b"/>
    <path id="Trazado_64" data-name="Trazado 64" d="M235.35,693.24s3,10.33,5.39,11.46S235.35,693.24,235.35,693.24Z" transform="translate(-76 -98.55)" opacity="0.1"/>
    <path id="Trazado_65" data-name="Trazado 65" d="M239.46,658.86s7.73,6.1,11,6.09S239.46,658.86,239.46,658.86Z" transform="translate(-76 -98.55)" opacity="0.1"/>
    <path id="Trazado_66" data-name="Trazado 66" d="M286,403.5V416l-8.22-3.54-8.19-3.53-17.83-17.54s-14.1-9.17-21.65-17.52c-4.31-4.76-6.48-9.26-2.68-11.63a23.771,23.771,0,0,0,4.93-4.33,80.513,80.513,0,0,0,9.84-14.51l.35-.64c3.67-6.73,6.1-12.49,6.1-12.49s10.34,3.32,17,8c.54.37,1.05.76,1.53,1.15,3.71,3.05,5.55,6.57,2.14,10.08a24.6,24.6,0,0,0-2.44,2.91h0a24.248,24.248,0,0,0-1.51,2.39c-.21.36-.4.73-.58,1.1a25.31,25.31,0,0,0-2.26,15.1Z" transform="translate(-76 -98.55)" fill="#ecb4b6"/>
    <path id="Trazado_67" data-name="Trazado 67" d="M269.31,349.46a24.609,24.609,0,0,0-2.44,2.91h0a24.247,24.247,0,0,0-1.51,2.39c-.21.36-.4.73-.58,1.1a29.62,29.62,0,0,1-22.23-12c-.12-.17-.24-.33-.35-.5l.35-.64c3.67-6.73,6.1-12.49,6.1-12.49s10.34,3.32,17,8c.54.37,1.05.76,1.53,1.15C270.88,342.43,272.72,346,269.31,349.46Z" transform="translate(-76 -98.55)" opacity="0.1"/>
    <path id="Trazado_68" data-name="Trazado 68" d="M296.16,325.07a29.69,29.69,0,0,1-29.71,29.71h-1.13a29.72,29.72,0,1,1,30.8-29.69Z" transform="translate(-76 -98.55)" fill="#ecb4b6"/>
    <path id="Trazado_69" data-name="Trazado 69" d="M270.34,398.5s15,8.45,11.13,1.32L262,371h0l22.16,28.49s14.15,19.43,6.42,32.82c0,0-1.13,11.13.19,13.77s-.38,30.75-.38,30.75-5.28-4.91-8.11-4-22.83,2.64-22.83,2.64Z" transform="translate(-76 -98.55)" opacity="0.1"/>
    <path id="Trazado_70" data-name="Trazado 70" d="M289,470.94l-.29,5.22c-1.79-1.3-4.28-2.76-5.94-2.2C280,474.9,260,476.6,260,476.6l.92-6.49Z" transform="translate(-76 -98.55)" opacity="0.1"/>
    <path id="Trazado_71" data-name="Trazado 71" d="M270.91,398.5s15,8.45,11.13,1.32L262.52,371h0l22.16,28.49s14.15,19.43,6.41,32.82c0,0-1.13,11.13.19,13.77s-.38,30.75-.38,30.75-5.28-4.91-8.11-4S260,475.47,260,475.47Z" transform="translate(-76 -98.55)" fill="#464353"/>
    <path id="Trazado_72" data-name="Trazado 72" d="M278.91,413c-.88,9.06-4.61,19.85-4.61,19.85s-2.63,26.79-6,34.72-1.89,18.86-3.77,39c-.68,7.27-3,12.26-6.18,15.63-5.2,5.54-12.61,6.7-18.47,6.36l-1.39-.11c-9.43-.94-18.48-46.4-18.48-46.4s-4.34-38.67-2.64-43.95-1.7-35.47-2.83-42.07c-.72-4.18,1.44-11,3.12-15.47,1-2.56,1.78-4.34,1.78-4.34s3.21-10.18,8.49-15.46a7.77,7.77,0,0,1,5.6-2.35,13.88,13.88,0,0,1,7,2.19l.24.16s34.33,35.08,37.53,43.19C279.16,406.24,279.25,409.48,278.91,413Z" transform="translate(-76 -98.55)" opacity="0.1"/>
    <path id="Trazado_73" data-name="Trazado 73" d="M277.78,412.41c-.88,9.07-4.61,19.86-4.61,19.86s-2.64,26.79-6,34.71-1.89,18.86-3.78,39c-.67,7.26-3,12.25-6.18,15.63-5.19,5.54-12.6,6.69-18.46,6.35a12.615,12.615,0,0,1-1.39-.11c-9.43-.94-18.48-46.4-18.48-46.4s-4.34-38.67-2.64-43.95-1.7-35.46-2.83-42.07c-.72-4.18,1.44-11,3.12-15.46,1-2.57,1.78-4.34,1.78-4.34s3.21-10.19,8.49-15.47a7.77,7.77,0,0,1,5.59-2.35,14,14,0,0,1,7,2.19l.25.16s34.33,35.09,37.53,43.2A22.04,22.04,0,0,1,277.78,412.41Z" transform="translate(-76 -98.55)" fill="url(#linear-gradient-7)"/>
    <path id="Trazado_74" data-name="Trazado 74" d="M239.31,550.49s-7.78,6.94-10.47,6.65S239.31,550.49,239.31,550.49Z" transform="translate(-76 -98.55)" opacity="0.1"/>
    <path id="Trazado_75" data-name="Trazado 75" d="M241.38,557.15s-8.2,3.81-10.65,4.38S238.22,556.17,241.38,557.15Z" transform="translate(-76 -98.55)" opacity="0.1"/>
    <path id="Trazado_76" data-name="Trazado 76" d="M273.13,453s12.16.14,14,4S277.09,451.46,273.13,453Z" transform="translate(-76 -98.55)" opacity="0.1"/>
    <path id="Trazado_77" data-name="Trazado 77" d="M271.43,459.67s9.34,2,12.16,4.24S271.43,459.67,271.43,459.67Z" transform="translate(-76 -98.55)" opacity="0.1"/>
    <path id="Trazado_78" data-name="Trazado 78" d="M255.73,436.61S254.6,475,250.42,479.9,255.73,436.61,255.73,436.61Z" transform="translate(-76 -98.55)" opacity="0.1"/>
    <path id="Trazado_79" data-name="Trazado 79" d="M245.26,545s-7.77,33.81,7.85,35.93,10.82-38.48,10.82-38.48Z" transform="translate(-76 -98.55)" opacity="0.1"/>
    <path id="Trazado_80" data-name="Trazado 80" d="M244.69,544.41s-7.77,33.81,7.86,35.94,10.81-38.49,10.81-38.49Z" transform="translate(-76 -98.55)" fill="#ecb4b6"/>
    <path id="Trazado_81" data-name="Trazado 81" d="M258.06,402.47c-.8-20.32-29.24-24.52-35.87-5.3l-.14.39c-4.33,13-2.45,46-2.45,46s.57,22.13,2.64,29.48,7.92,28.49,7.92,31.88,5.42,16.41,7.71,17.36,3.44,8.3,4,9.62,2.25,18.48,2.25,18.48,21.32-1.32,21.7-4.71-4.72-20-4.72-20-3.76-6.79-4.24-12.26-3.49-7.92-2.93-11.69-1.7-5.66-1.7-8.12-1.69-9.05-1.69-9.05-3.59-2.83-3-6.22-5.09-10.19-3.58-12.64,1.88-8.49,1.88-8.49,1.87-27.2,3.16-34.55,9-19.24,9-19.24A3.951,3.951,0,0,0,258.06,402.47Z" transform="translate(-76 -98.55)" opacity="0.1"/>
    <path id="Trazado_82" data-name="Trazado 82" d="M257.18,521.66c-5.19,5.54-12.6,6.69-18.46,6.35-.67-2.57-1.66-5.73-3.11-6.33-2.29-.94-7.71-14-7.71-17.35s-5.85-24.53-7.92-31.88S217.34,443,217.34,443s-1.89-33,2.45-46c.05-.13.09-.26.13-.4,6.64-19.22,35.07-15,35.88,5.31v.93s-7.74,11.88-9,19.24-3.21,34.52-3.21,34.52-.38,6-1.89,8.49,4.15,9.25,3.59,12.64,3,6.23,3,6.23,1.7,6.59,1.7,9.05,2.26,4.34,1.7,8.11,2.45,6.22,2.93,11.7a30.68,30.68,0,0,0,2.56,8.84Z" transform="translate(-76 -98.55)" opacity="0.1"/>
    <path id="Trazado_83" data-name="Trazado 83" d="M256.93,401.91c-.81-20.32-29.24-24.53-35.88-5.3a1.2,1.2,0,0,1-.13.39c-4.34,13-2.45,46-2.45,46s.57,22.12,2.64,29.48S229,500.93,229,504.33s5.42,16.41,7.71,17.35,3.44,8.3,4,9.62S243,549.79,243,549.79s21.32-1.32,21.69-4.72-4.71-20-4.71-20-3.76-6.79-4.24-12.26-3.5-7.93-2.93-11.7-1.7-5.66-1.7-8.11-1.69-9.06-1.69-9.06-3.59-2.83-3-6.22-5.1-10.19-3.59-12.64,1.89-8.49,1.89-8.49,1.89-27.16,3.21-34.52,9-19.24,9-19.24A3.088,3.088,0,0,0,256.93,401.91Z" transform="translate(-76 -98.55)" fill="url(#linear-gradient-8)"/>
    <path id="Trazado_84" data-name="Trazado 84" d="M221.91,454.15c.57-.57,11.32-12.45,14.72-8.2S221.91,454.15,221.91,454.15Z" transform="translate(-76 -98.55)" opacity="0.1"/>
    <path id="Trazado_85" data-name="Trazado 85" d="M222.9,463.35c.43-.43,10.75-.85,13.3-6.65S222.9,463.35,222.9,463.35Z" transform="translate(-76 -98.55)" opacity="0.1"/>
    <g id="Grupo_1" data-name="Grupo 1" opacity="0.1">
      <path id="Trazado_86" data-name="Trazado 86" d="M211.13,359a2.91,2.91,0,0,1,.57,1,4.43,4.43,0,0,0-.57-3.86c-.5-.57-1.24-.92-1.69-1.53,0-.05-.06-.11-.1-.16a3,3,0,0,0,.1,3C209.89,358.11,210.63,358.45,211.13,359Z" transform="translate(-76 -98.55)"/>
      <path id="Trazado_87" data-name="Trazado 87" d="M225.53,322.36c0-1.07.05-2.14,0-3.2-.19-3.85-.91-7.8-1.07-11.66-.23,4.73.83,9.69,1.07,14.49Z" transform="translate(-76 -98.55)"/>
    </g>
    <path id="Trazado_88" data-name="Trazado 88" d="M325.64,420.48l.58.4a2.33,2.33,0,0,1-.6-3.24l26.22-38.06a2.34,2.34,0,0,1,3.25-.6l-.59-.4a3.75,3.75,0,0,1,1,5.21l-24.62,35.73a3.73,3.73,0,0,1-5.24.96Z" transform="translate(-76 -98.55)" fill="#464353"/>
    <path id="Trazado_89" data-name="Trazado 89" d="M340.26,373.86H341v50.88h-.71a1.74,1.74,0,0,1-1.74-1.74V375.6a1.74,1.74,0,0,1,1.71-1.74Z" transform="translate(210.49 -220.81) rotate(34.56)" fill="#9f9eff"/>
    <rect id="Rectángulo_1" data-name="Rectángulo 1" width="0.469" height="4.144" rx="0.17" transform="matrix(0.821, 0.571, -0.571, 0.821, 273.015, 285.364)" fill="#464353"/>
    <path id="Trazado_90" data-name="Trazado 90" d="M299.88,321.43c-.42-2-2.08-3.53-3.22-5.25-2.86-4.31-2.41-10-1.07-15a10.7,10.7,0,0,0,.6-4.25,6.7,6.7,0,0,0-3.15-4.41c-3.5-2.31-8-2.34-11.94-3.79-5.72-2.12-10.9-7.34-16.87-6.07-3.26.69-5.77,3.21-8.59,5a20.65,20.65,0,0,1-10.37,3.18c-3.09.09-6.22-.51-9.26,0a8.26,8.26,0,0,0-1.6.44,23.64,23.64,0,0,0-8-1.29,13.57,13.57,0,0,0-7.58,2.11c-4.11,2.9-5.2,8.51-5.14,13.54s.91,10.2-.63,15c-1.91,6-7.31,10.5-8.39,16.66-.75,4.18.64,8.41,1.87,12.48,3.54,11.69,5.88,24.61,1.18,35.89-1.19,2.86-3,5.69-5.79,7l10-.58a5.43,5.43,0,0,1-4.55,6.17,23.15,23.15,0,0,0,7.32-1.67,7.83,7.83,0,0,0,4.61-5.59c.19-1.34-.09-2.75.28-4.06.65-2.24,3-3.48,4.81-4.91,4.87-3.79,7.17-10.18,7.36-16.35s-1.45-12.24-3.2-18.16-3.63-11.89-3.91-18a23.44,23.44,0,0,1,.62-6.72c.36.67.76,1.33,1.17,1.95,2.41,3.68,5.23,7.17,6.71,11.31a31.739,31.739,0,0,0,2.1,5.69c1,1.75,2.94,3.2,4.95,2.89s3.51-2.47,4.17-4.53.95-4.31,2.2-6.07c2.38-3.32,7.13-3.62,11.21-3.5,8.6.27,20.46,1.58,27.19-5,1.28-1.25,1.89-3.17,3.89-2.7,1.79.42,2.79,3.33,4.7,4C296.63,327.81,300.6,324.89,299.88,321.43Z" transform="translate(-76 -98.55)" opacity="0.1"/>
    <path id="Trazado_91" data-name="Trazado 91" d="M299.88,320.33c-.42-2-2.08-3.53-3.22-5.25-2.86-4.31-2.41-10-1.07-15a10.7,10.7,0,0,0,.6-4.25,6.7,6.7,0,0,0-3.15-4.41c-3.5-2.31-8-2.34-11.94-3.79-5.72-2.12-10.9-7.34-16.87-6.07-3.26.69-5.77,3.21-8.59,5a20.65,20.65,0,0,1-10.37,3.18c-3.09.09-6.22-.51-9.26,0a8.26,8.26,0,0,0-1.6.44,23.64,23.64,0,0,0-8-1.29,13.57,13.57,0,0,0-7.58,2.11c-4.11,2.9-5.2,8.51-5.14,13.54s.91,10.2-.63,15c-1.91,5.95-7.31,10.5-8.39,16.66-.75,4.18.64,8.41,1.87,12.48,3.54,11.69,5.88,24.61,1.18,35.89-1.19,2.86-3,5.69-5.79,7l10-.59a5.43,5.43,0,0,1-4.55,6.17,23.15,23.15,0,0,0,7.32-1.67,7.83,7.83,0,0,0,4.61-5.59c.19-1.34-.09-2.75.28-4.06.65-2.24,3-3.48,4.81-4.91,4.87-3.79,7.17-10.18,7.36-16.35s-1.45-12.24-3.2-18.16-3.63-11.89-3.91-18.05a23.44,23.44,0,0,1,.62-6.72c.36.67.76,1.33,1.17,2,2.41,3.68,5.23,7.17,6.71,11.31a31.739,31.739,0,0,0,2.1,5.69c1,1.75,2.94,3.2,4.95,2.89s3.51-2.47,4.17-4.53.95-4.31,2.2-6.07c2.38-3.32,7.13-3.62,11.21-3.5,8.6.27,20.46,1.58,27.19-5,1.28-1.25,1.89-3.17,3.89-2.7,1.79.42,2.79,3.33,4.7,4C296.63,326.71,300.6,323.79,299.88,320.33Z" transform="translate(-76 -98.55)" fill="#464353"/>
    <g id="Grupo_2" data-name="Grupo 2" opacity="0.1">
      <path id="Trazado_92" data-name="Trazado 92" d="M213.69,302.62c0,.65-.05,1.31,0,1.95,0,2.1.18,4.22.25,6.33C214,308.17,213.78,305.38,213.69,302.62Z" transform="translate(-76 -98.55)"/>
      <path id="Trazado_93" data-name="Trazado 93" d="M210.28,368.7c.26-7.77-1.51-15.79-3.78-23.31a44.542,44.542,0,0,1-2-8.3c-.42,3.9.83,7.82,2,11.6a80.29,80.29,0,0,1,3.78,20.01Z" transform="translate(-76 -98.55)"/>
      <path id="Trazado_94" data-name="Trazado 94" d="M294.61,305.56a29.68,29.68,0,0,1,1-5.48,10.7,10.7,0,0,0,.6-4.25,4.561,4.561,0,0,0-.18-.75c-.12.57-.27,1.14-.42,1.71A25.849,25.849,0,0,0,294.61,305.56Z" transform="translate(-76 -98.55)"/>
      <path id="Trazado_95" data-name="Trazado 95" d="M211.86,387.69l-6,.35a10,10,0,0,1-3.94,3.54l9.4-.56A5,5,0,0,0,211.86,387.69Z" transform="translate(-76 -98.55)"/>
      <path id="Trazado_96" data-name="Trazado 96" d="M299.62,319.48a5.21,5.21,0,0,1-6.13,2.86c-1.91-.65-2.91-3.56-4.7-4-2-.47-2.61,1.45-3.89,2.7-6.73,6.61-18.59,5.3-27.19,5-4.08-.12-8.83.18-11.21,3.5-1.25,1.76-1.53,4-2.2,6.07s-2,4.2-4.17,4.53-3.92-1.14-4.95-2.89a31.741,31.741,0,0,1-2.1-5.69c-1.48-4.14-4.3-7.63-6.71-11.31-.41-.62-.81-1.28-1.17-1.95a23.439,23.439,0,0,0-.62,6.72q0,.24,0,.48a21.09,21.09,0,0,1,.58-3.9c.36.67.76,1.33,1.17,2,2.41,3.68,5.23,7.17,6.71,11.31a31.742,31.742,0,0,0,2.1,5.69c1,1.75,2.94,3.2,4.95,2.89s3.51-2.47,4.17-4.53.95-4.31,2.2-6.07c2.38-3.32,7.13-3.62,11.21-3.5,8.6.27,20.46,1.58,27.19-5,1.28-1.25,1.89-3.17,3.89-2.7,1.79.42,2.79,3.33,4.7,4,3.14,1.07,7.11-1.85,6.39-5.31a4.66,4.66,0,0,0-.22-.9Z" transform="translate(-76 -98.55)"/>
      <path id="Trazado_97" data-name="Trazado 97" d="M224.33,377.63c-1.84,1.43-4.16,2.67-4.81,4.91-.37,1.31-.09,2.72-.28,4.06a7.83,7.83,0,0,1-4.61,5.59,14.484,14.484,0,0,1-2.87,1,5.44,5.44,0,0,1-4.45,4,23.15,23.15,0,0,0,7.32-1.67,7.83,7.83,0,0,0,4.61-5.59c.19-1.34-.09-2.75.28-4.06.65-2.24,3-3.48,4.81-4.91,4.87-3.79,7.17-10.18,7.36-16.35v-2.74C231.34,367.83,229.06,374,224.33,377.63Z" transform="translate(-76 -98.55)"/>
    </g>
  </g>
</svg>
